<svg id="Layer_1" data-name="Layer 1" preserveAspectRatio="none"
    xmlns="http://www.w3.org/2000/svg" viewBox="0 0 1199.41 36.88">
    <defs>
        <style>.cls-1{fill:#264653;}</style>
    </defs>
    <path class="cls-1" d="M1188.82,30.55c0-3,13.26-5.6,10.11-8.39-1.26-.82-4.57-12.45-12.77-14-1.9-.47,2.53-1.35,4.42-2.36-10.73-.22-11.35-1.38-6.93-2.25l-5.05-.28,2.53-1.35c-27.15-1.89-72.45-1-99-.21-5.69.06-15.16.67-21.47,1.08-3.15.2-10.09-.55-12.62-.68-4.43.89-3.8,2-5.69,3.06-19.57-1.41-65.87-6-64.61-2.21-15.77-.45-25.94-.74-42.36-.84C913.68,1.92,890.1,3.71,862.9,3.5c-14.87,0-29.16-.26-43.6-.49l-15.6-.18C695.75,1.63,616.79-.91,511.46.92c-106.17,1.85-211.46,3-303,1C164,1,126.46,2.92,92.09,4,93.34,3.3,94.51,2.63,90.15,2Q74.32.85,57.76,0,41.38.45,25.44,1.13a6.7,6.7,0,0,1-1.72,1L19.28,2,4,3.3c2.31.22,5,.44,8,.64-.56.74-.51,1.45-1.41,1.93,0,3-13.27,5.61-10.12,8.4,1.26.81,4.57,10.45,12.77,12,1.9.48-2.53,1.35-4.42,2.37,10.74.22,11.35,1.37,6.94,2.25l5,.28-2.53,1.35c27.15,1.88,57.45,5,84,4.21,5.68-.07,15.15-.68,21.46-1.08,3.15-.21,10.09.54,12.62.68,4.43-.89,3.8-2,5.69-3.06,19.58,1.4,61.87,4,60.62.2,15.77.46,38.94.75,55.35.85l76.52.58c14.87,0,26.17.27,40.6.49l15.6.19c108,1.19,189.42,1.14,294.75-.68,106.17-1.86,213.46-1,305,1,44.51,1,84.87-1.91,117-1-1.25.67-2.56-1.13,1.81-.52q15.82,1.18,32.38,2Q1158,36,1174,35.3a6.08,6.08,0,0,1,1.73-1l4.44.09,15.27-1.3c-2.3-.23-5-.44-8-.64C1188,31.75,1187.92,31,1188.82,30.55Z"/>
</svg>