<svg id="Layer_1" data-name="Layer 1" preserveAspectRatio="none"
    xmlns="http://www.w3.org/2000/svg" viewBox="0 0 1199.41 1200.88">
    <defs>
        <style>.cls-1{fill:#264653;}</style>
    </defs>
    <path class="cls-1" d="M1107.44,1198.9l-1.12,0A1,1,0,0,0,1107.44,1198.9Z"/>
    <path class="cls-1" d="M1199.41,0H0V1182.43H3.17c2,3.09,5.16,6.91,10.07,7.84,1.9.48-2.53,1.35-4.42,2.37,10.74.22,11.35,1.37,6.94,2.25l5,.28-2.53,1.35c27.15,1.88,57.45,5,84,4.21,5.68-.07,15.15-.68,21.46-1.08,3.15-.21,10.09.54,12.62.68,4.43-.89,3.8-2,5.69-3.06,19.58,1.4,61.87,4,60.62.2,15.77.46,38.94.75,55.35.85l76.52.58c14.87,0,26.17.27,40.6.49l15.6.19c108,1.19,189.42,1.14,294.75-.68,106.17-1.86,213.46-1,305,1,44,1,83.93-1.84,115.88-1-.32-.31.17-.88,2.93-.5q15.82,1.18,32.38,2,16.36-.37,32.37-1.08a6.1,6.1,0,0,1,1.73-1l4.44.09,15.27-1.3c-2.3-.23-5-.44-8-.64.56-.7.48-1.45,1.38-1.9,0-3,13.26-5.6,10.11-8.39-.43-.28-1.09-1.79-2.09-3.73h2.57Z"/>
</svg>