<svg id="Layer_1" data-name="Layer 1" preserveAspectRatio="none"
    xmlns="http://www.w3.org/2000/svg" viewBox="0 0 1123.67 212.01">
    <defs>
        <style>.cls-1{fill:#000;}</style>
    </defs>
    <path class="cls-1" d="M1097.12,5.13a9.8,9.8,0,0,1,2.51-.74C1097.18,4.53,1096.77,4.79,1097.12,5.13Z"/>
    <path class="cls-1" d="M1039.56,8c.45-.06.89-.15,1.29-.24C1039.93,7.81,1039.3,7.92,1039.56,8Z"/>
    <path class="cls-1" d="M1074.07,9.63a1,1,0,0,0,.45.4C1074.74,9.92,1074.65,9.78,1074.07,9.63Z"/>
    <path class="cls-1" d="M829,5.38a32.42,32.42,0,0,0-5.3.52l5.46-.49Z"/>
    <path class="cls-1" d="M759.72,15l.27-.09-.43.06Z"/>
    <path class="cls-1" d="M834.36,4.43A3.6,3.6,0,0,0,835.3,4C834.15,4.06,834.09,4.23,834.36,4.43Z"/>
    <path class="cls-1" d="M204.75,21.77l1.33-.15A10.14,10.14,0,0,0,204.75,21.77Z"/>
    <path class="cls-1" d="M764.34,15.94l-4.62-1-2.06.68C756.83,16.58,762.13,16.3,764.34,15.94Z"/>
    <path class="cls-1" d="M834.36,4.43a24,24,0,0,1-5.25,1l2.51.54C837.75,5.71,835,4.94,834.36,4.43Z"/>
    <path class="cls-1" d="M280.33,20.87c.4,0,.83,0,1.33-.05Z"/>
    <path class="cls-1" d="M1023.13,9.1l0-.3A.35.35,0,0,0,1023.13,9.1Z"/>
    <path class="cls-1" d="M683.32,19.38a3.59,3.59,0,0,0,.64-.13Z"/>
    <path class="cls-1" d="M876.35,5.93l.87.2C878.13,5.77,878.48,5.62,876.35,5.93Z"/>
    <path class="cls-1" d="M1089.27,9.63c-.3,0-.65-.05-1.06-.07Z"/>
    <path class="cls-1" d="M877.22,6.13a12.14,12.14,0,0,0-2,.92L878,6.29Z"/>
    <path class="cls-1" d="M880.72,8.85l-3.3,0c-.36.23-.81.46-1.27.69C878.32,9.38,880.16,9.21,880.72,8.85Z"/>
    <path class="cls-1" d="M212.36,20.1l1,.07A7.86,7.86,0,0,0,212.36,20.1Z"/>
    <path class="cls-1" d="M530.74,16.25l-3.07.14C529,16.37,530,16.32,530.74,16.25Z"/>
    <path class="cls-1" d="M753.12,15.81c-1.18-.79,4.84-2.57-.36-3.1-18.19.64-7.69,3.64-26.42,4.16l9.53.6c-.53-1.49,6.12-2.59,13.41-3l2.25,1c-1.24.38-2.57.69-4,1C750.32,16.48,749.79,15.63,753.12,15.81Z"/>
    <path class="cls-1" d="M746.89,16.44l.44.06.24,0Z"/>
    <path class="cls-1" d="M7.56,30.09a1.35,1.35,0,0,1-.47-.4C7.18,30.07,7.35,30.13,7.56,30.09Z"/>
    <path class="cls-1" d="M7,44a1,1,0,0,0-.15-.2C6.88,43.91,7,44,7,44Z"/>
    <path class="cls-1" d="M5.65,70l.13-.16C5.56,69.75,5.46,69.71,5.65,70Z"/>
    <path class="cls-1" d="M79.82,208.59h-.19c.2.12.46.23.51.36C80.35,208.73,80.35,208.73,79.82,208.59Z"/>
    <path class="cls-1" d="M107.38,206.63c.49.12,1,.24,1.39.39C108.74,206.88,108.17,206.76,107.38,206.63Z"/>
    <path class="cls-1" d="M103.68,206.08c1,.19,2.54.37,3.7.55A26,26,0,0,0,103.68,206.08Z"/>
    <path class="cls-1" d="M30.55,207.38l-2.64-.19c.74.15,1.56.3,2.45.43C30.42,207.54,30.57,207.49,30.55,207.38Z"/>
    <path class="cls-1" d="M653.81,203.59l1.45.31A3.36,3.36,0,0,0,653.81,203.59Z"/>
    <path class="cls-1" d="M572.33,206.85H574A13.85,13.85,0,0,0,572.33,206.85Z"/>
    <path class="cls-1" d="M24.86,205.23c-2.15.45-6.17.54-6.28,1.27l9.33.69C24.88,206.55,23.23,205.72,24.86,205.23Z"/>
    <path class="cls-1" d="M47.27,208.81l-2.11.19A19.64,19.64,0,0,0,47.27,208.81Z"/>
    <path class="cls-1" d="M1112.77,71.4l-.25-.2a1.65,1.65,0,0,0,.15.25S1112.74,71.42,1112.77,71.4Z"/>
    <path class="cls-1" d="M1123.67,139.22l-.91-2.67c-.78,1.25,0,1.71-.12,3.28Z"/>
    <path class="cls-1" d="M1119.94,141c0-.76-.12-1.52-.2-2.27l-.36.92C1119.58,140.1,1119.75,140.55,1119.94,141Z"/>
    <path class="cls-1" d="M1110.88,44.57c-2,.7-.61-1.69-1.69.83C1110,46.46,1110.19,44.71,1110.88,44.57Z"/>
    <path class="cls-1" d="M1106.63,41.92a1.55,1.55,0,0,0,1,1.15C1108,41.37,1107.16,42.15,1106.63,41.92Z"/>
    <path class="cls-1" d="M1123.19,126.34c-.89-1.79-.27.14-1.25,0-1.15-3.4.81-3.41,1.6-5.08-.54-2.07-.52,1.51-1.42.33,1-3-1.43-2.63-.51-6.36.71-.33.46,1,.92,1.44-1.2-2.77-.3-7.7-.53-11.7a72.16,72.16,0,0,0,1.09-8.37c.28-3.31.45-7.13.51-11h-.46a11,11,0,0,0-.29-5,41,41,0,0,1-1.15-5l-.18,2c-1.28-1.61-1.16-3-2-4.52l.82-2c-1-1.5-1.25,0-2.29-.67.12-2.26-1.71-4.56-1.9-5.19.33-1,.92-.17,1.31-.27-1.06-1.34-2.06-.12-2.93-2.21l.28-.34c-3.38-3.15-5.63-9.28-8.83-13.58,1.25-.32,2.63-.63,1.66-.84.71-.22.7-.43-1.5-.62l-.47.1a23.88,23.88,0,0,1-1.16-2.68c1-1.15,1.25-2.19.39-3-2.84-.67,7.08-1.61,1.15-1.93l-3.72.88c2.61-1.9,3.88-3.66,2.57-5-2.84-.67,7.08-1.62,1.15-1.94l-5.87,1.39c.71-.49-.88-1.06-2-1.57l-.36-.79a14.73,14.73,0,0,1,1.89-.48,13.31,13.31,0,0,0-2,.22,64.91,64.91,0,0,0-7.95-13.22c8.8-3.88,18-8.85,15.19-11.65-2.84-.67,7.08-1.62,1.15-1.94l-5.87,1.39c1-.66-2.36-1.49-3-2.1-2.35,1.31,7.52,2.27.6,4-1.42.71-5.65.63-8.45.46,4,.36-1.38,1.2-3.59,1.64-.44-.07-.91-.13-1.4-.18L1075,26c-.23,3.15,5-10,7.6-15-3.24-.22-6.82-.26-8.08-.92a17,17,0,0,1-5.31.31l-.19-.45c-4.35.37,1.48.44.37.9-3.15.14-8.08-.85-13.22-.82a100.07,100.07,0,0,0,13.09-1.11c-9.37-.84,1.65-2.28,3.75-3.43-7.53.5-10.41,1.32-16.56,2-7.13-.92-1.37-3,2.27-3.41-6.78.63-13.83,6-17.46,6.5,5.09-1.74,4.22-2.3,8.81-3.7-5.48-1.05-6.6.2-9.22.86,1.53-.16,3.89-.26,4.44.09-6.51-.18-5.41,2.54-8.8,3.7-4.49-.7-12.77-1.07-13.36-2.41l0,1.4c-5.65.4-2.94-.88-3.81-1.43-2.11,1.15.52,2.83-9,3.27,1.46-2.75-8.49-.24-8.22-2.74-4.45.17-6.47,1.56-11.1,1.28-5.12-1.41,7-3.39,9.77-3,6.42-.08-.85,1.15,1.73,1.12l6.14-.76c-3.42-.53-10.14-1.12-9.32-2.27-6.25.53,5,1.19-1.82,1.84l-4.14-.63c-6.83.66,1.44,1.91-7.48,2.27,6-1.23-9.67,0-9.14-1.8-.35,2.27-16,.38-17.84,2.22l4.73.49-1.06-1c5.14-.08,9.41-.73,14.73-.36-4.17.86,1.43,1.9-3.42,2.67-9.12,1.4-2.44-1.21-3.72-1.19L963,11.77l4.93.94c-5.65.43-13.36.57-21.17.5-11.52-1.25,1.41-1.29-6.85-2.48-3.68.53-2.78,1.09-8,1,2.83.62,5-.34,7-.26,2.53,1.42-9.39.77-8.85,2.12-2.16-.52-1.75-1.1,0-1.71-8.82.66-17.31.53-20.63-1.2l-3.79,1.81c-15.1-.39,10.31-1.76-2.4-2.67-5.24-.08-10.39.06-12.68.82l4.54,0c-3.46,1-3.19,1.68-8.74,2.42-4-.11-1.84-1.31-6.6-.26-9.62-.59-6.24-1.9-3.51-3.24-4,.24-9.16.32-9.84,1.05-.08-.41.54-1.21,2.79-1.71,8.21,1.63,3.16-1.9,6.53,0l1.79,0a4.61,4.61,0,0,0,.44-.32c-3.48-.29-3.51-.89-2.64-1.45L872,7.93l-2.43-1.59c-3.06-.14-5.07,1.33-6.77.4-4.58-1.29,6.66-2.37-4.56-2.66-12-.18-11.25,2.46-19.4,2.34.84.46,2.87.35,5.41.35-2.64.8,2,1.27-2.43,2-2.55-1.38-11.14-1.06-17.7-.81,1.71-.84-2.51-1.49-.46-2-3.33.29-6.39.63-7.81,1.34,13.37.65-12.91,1.64-2.52,2.76-10.39.27-12.41-1-18.87-1.52.42-.46,11.95-1.33,2.73-1.62-10.58,1.9,1.92,2.05-6.29,4.17l6.67.3c.86,1.84-11.54.87-13.24,1.35C780.2,12.36,790,12,786,10.83c-6.14-.18-9.21,1.11-13.14.56,3.8-1.41,1.37-.82,5.7-2.11-14.4.57.72-1.5-10.29-1.87-3.49.37-1.26,1.39-6.89,1.32,3.31,1.23,2.9,1.7,12,1.39-3.15,2.1-12,0-18.31,1.43,5.09-.05,1.6.32,7.1-.18.77,1.61,2.82,1.79-2.18,3.52,5.9-.67,8.44-2.54,16.92-2.38,2.35,1.58-10.37,1.69-10.44,3.87-4.19,1.26-14.45.74-19.14.12-8.19,1.67-18.26,2.11-24.52,4.31-5.95-.4-20.74,0-31.95-.11-1.67-.87-12.94-.19-7.54-1.32-2.32.35-9.34.84-7.18,1.54,1-.36,2-.14,4-.26l-1.77,1.27c-5.41-.3-11.43-2.56-16.62-3.11-1.7-.9,9.72,3,6.22,2-5,2-25.25-.57-31.72-1.16-4.35-.12-4.88-1.61-6.69-1.72l-7.29.32c-.86-.47-1-1-2.33-1.62a36.45,36.45,0,0,0-8.26.61c-9.53-.87-4.46-2.15.41-3.21,1.79.16,3.59.3,5.38.41,3.91-.79,9.53-.65,6.22-1.93-2.72.22-2.62.79-3.58,1.13L617,13c-3.17.7-12,1.06-11,2.12-6.45-.69-13.84.31-19.57-.49,3.93.65-1,1.13.12,2l6.88.25c-5.5.36-13.44,1.24-18.63.56.63-.67.84-.9-1.8-1.53,3.71.88-9.62-3.69-1.58-2.61,3-.4,5.72,4.42,9.54,4.49,2.52,1.43-3.5-3.34-6.88-2.49-4.23.38-12.49.91-18.19,1.49-3.6-.3-4.67-1.93-10.81-.9,6.38,1.06-2.52,2-7.15,3.06l-7.11.11a16,16,0,0,0,4.32-.84c.32-1-2-2.68,7-3.31-10.81-.4-6.34.95-11.32,1.42l3.7-.18c-1.68.42,1.5,1.17-1.78,1.22-12.7-.24-14.94-1.32-23.52-2.52,1.92.73-2,1.46-4,1.54-8.25-.85.1,2.81-5,1.34-2.87,1-8.48-4.25-6.58-3.52-3.27,0-1.58-.37-3.91-.65-2.11.88-4.55,1.4-9.09,1.43.41-.45,1-1.13,5.39-.93-4.87-.32-6.66,3.15-4.55,2.27l7.93.5c3.6-1.08-7.4-.37-7.1-1.4,3.5-.28,6.14.35,8.36.05-2.23-1.08-9.09,0-13.11.2-6.35-.12-4-1.22-4.13-1.8-10.79,1.86,12.49,1.85,2.44,3.61C472,18.71,462.37,13.64,455.6,14c5.82,1.38-.64,2.06-7.63,2.61,9.11,0,2.34,1.65,13,.6l.21,1.15c-4.56,0-9.95-.42-14.5-.4,1-.32-.11-.57,1.38-.78l-13.56.63,1.38-.76c-8.36-.11-18.63-.95-23.61-.51,4-.12,7.51,1,3.29,1.35a52.32,52.32,0,0,1-10.7,1c-2-1.32-16.41-1.24-7.3-2.61-11.75.72-7.41,1-18.64,1.79l7.52-.36c.93,1-5.05,2.77,1.52,3.45l-11.13.17a20.56,20.56,0,0,0-2.35,0l-2.64,0c-.25-.74,6.41-1.32,6.12-1.64-5.82,0,.12.58-5.38.89-9.64,1.23-6.14-1.77-15.36-1,2-.05,5.6.27,3.18.78-10.4,0-8.19.76-12.54,1.32l-4.06.06c-4.15-1.45-2.56-3-10.27-3.29l4.53,0a42.35,42.35,0,0,0-10-1.09c-16.93,1.34-30.91,3.66-48.38,4.84l6.25-.38c1.53.38-1.87.55-3.83.83l-3.19.05-2-.36c-.14.15-.08.27.11.38l-4.23.07c.53-.81,1-1.65,7.55-2-6.13.18-.19-1.27-1-1.73-4.35-.26-2.13.85-7,.46.12-.81,10.6-1.49,5.94-2.1-.53,1.24-4.86,1-7,1.83-3.6-.35.1-.8-1.49-1.2-2,.05-3.18.59-5,.42l1.37-.77c-10-1.13-3.06,1.17-14.49.79-.32,1,3.18.8,7.93.61,2.14,2-11,2.32-13.44,4.06l-3.51.05c.52-.31.35-.65-3.17-.9-5.07-1.56,6.78-1.6,9.12-2.67l-9.54-1c3.19-2,9.11-1.29,10.81-3.07-7.09-.13-6.25.36-13.45,1,11.64,1.56-5.07,1.2,1.58,3.16-5.39-.54-3.7-.93-11.53-1,5-.4.21-1.6,6.78-1.6-10.58.09-7.72.52-18.3.59-3.3,1.37,10.68,1.89-2,2.79-2.75,0-2.21-.53-.6-.51-9.09-.62,1.86,1.74-3.85,2.41-4,.14-5.4-.42-3.76-.74-6,.73-2.67,1.68-6.63,2l1.8.18,0,0-22.37.33a8.46,8.46,0,0,0-3.31-.35l2.38.37-6.18.09a2,2,0,0,0-1.8-.83c-5.81-.42-5.53.21-5.33.94l-18.73.28c-1.26-.2-2-.44-1.58-.74-12.29,1.73-27.2-1.4-42.23-1,2.64.7-.34,1-1,1.67,6,0,5-.32,9.42.59,0,0,0,0-.05,0l-36.78.55c9.94-1.11,26.21-.69,24.58-3.05-8.05,0-13.9,1.2-23.73,1l.42-.43c-7.11-.28.1.58-1.59.95-8,.58-10.26-2.56-15.77-1l8.13.61c-6.15.78,1.8.22.31,1.74-10.93.87-29.77-.52-45.25.07,2,.45,3.37.7,4.79.88l-12.54.18.23,2.59A5.61,5.61,0,0,0,9.2,29c-.41.42-1-1.11-1.22-.22l.89.93c-.42-.16-.93.33-1.31.42.65.3,1.15-.52,1.87-.39-.28,1.76.31,7.19.21,9.2a2.82,2.82,0,0,1-.49,1c-.43-.25-.91-.88-1.33-1.08a5.84,5.84,0,0,0,.79,1.66c-.37.33-.77.64-1.16,1A1.52,1.52,0,0,1,7,41a4.69,4.69,0,0,0,.31.64,5.24,5.24,0,0,0-.59.65l.74-.35c.26.43.53.84.76,1.18a1.22,1.22,0,0,1-.09.32,11.09,11.09,0,0,1-1.85-1.08c-.65.85.14,1,.56,1.44-.11-.24-.18-.6,0-.69-.05.58.49.78,1.1.94a2.75,2.75,0,0,0,.44,1l-2-.26c1,.72.11,2.2-.42,2.8l1.34.69a9.89,9.89,0,0,1-1.28,2,.52.52,0,0,1-.28.06.35.35,0,0,0,.07.12,2.42,2.42,0,0,1-.88.44l1.25,0c-.8.47,0,5.42-2.08,3.64.28.43.92.83.76,1.73l-1.25.08c.3,1.32.52,2.78-.18,3.13a2.28,2.28,0,0,0-1.38-1.22c-.27,5.54,4.06,1.28,4.13,6.13l-.81-.07.86,1.24-1,1.28a2.38,2.38,0,0,1,1,1.24,11.24,11.24,0,0,0-.4,1.52c0,.12,0,.25-.06.37l0,0h0a40.89,40.89,0,0,0-.18,4.57c-.58,0-1-.72-1.19.77s.64,1.65,1.08,2.1c-2.22,1.63-3.22,3.16-2,4.38,2.9.77-7.23,1.38-1.19,1.9L5.43,83c0,.11,0,.22,0,.34l1.24-.22a6.16,6.16,0,0,0-.57,1.27c-.1,0-.2.14-.27.62l0,.06c-.83,2.72-1.68,7-3.82,8.49,1,1.45.38.07,1.05-.21l.67,1.46C4,96.6,2.67,97.17,2.15,98.64c.72,1.94.39-1.6,1.38-.63-.77,3.2,1.64,2.3,1.05,6.19-.67.48-.54-.9-1-1.23,1.42,2.49,1,7.57,1.52,11.48A74.15,74.15,0,0,0,4.72,122c-1.87,1.4-2.65,2.75-1.58,3.93,2.84.91-7.16,1-1.22,1.84l2.89-.43c.07,2.13.18,4.35.34,6.58l.45-.11a10.68,10.68,0,0,0,.72,4.92,38.2,38.2,0,0,1,1.55,4.6c-.31-.58-.48-1.35-.93-.12,1.07,1.68,3.74,1.74,2.15,5.12-1.34.12-.48-1.8-1.7,0,4,1.42,5.5,7.89,7.37,9.47l-1.7,0c-.09,2.21,2.27,3.48,2.06,4.65-1.74,3.16,2.84,7.63-.68,9.87L16,173.43l-1,1.39L16,174.6c.43,4.83-5.88,1.44-4.9,6.89A3.19,3.19,0,0,0,12.84,180c1,.22.85,1.71.59,3.08l1.69-.16c.31.86-.5,1.38-.83,1.86,2.62-2.17,2.07,2.9,3.21,3.22l-1.7.18c1.67.11,2.24.89,3.38,2-.71,0-1.41.05-2,.1a11.42,11.42,0,0,0,1.54.34l-.61.33-1.33,0a8,8,0,0,0,.82.23h0a3.87,3.87,0,0,1,1.13,1.09.29.29,0,0,0-.1.15l.2,0a1,1,0,0,1-.35,1.43l2.62-.62c-.08.11-.14.22-.2.32-1,0-1.63.1-1.75.38h1.56a.72.72,0,0,0,.16.91c-1.39,0-2.85,0-4.08.07a16,16,0,0,0,4.32.68,3.18,3.18,0,0,1-.26,1l-1.75-.35a13.46,13.46,0,0,0,2.56,1.31c-1.58.19-3,.39-3,.82l4.61.34a1.87,1.87,0,0,1,.2.29,3.74,3.74,0,0,1,.08.63c-2.21-.15-4.16-.23-4.37.26l4.38,0a4.72,4.72,0,0,1,0,.77c-1.36,0-2.71.05-4,.1l.13,0c-1,0-2,0-2.81.06a22.68,22.68,0,0,0,6.61.75,4,4,0,0,0,.36,2,14.53,14.53,0,0,1,.81-1.93c.66.08,1.34.14,2.11.19l.18,2h1.11c-.69.42-.66.79.85,1.8l7.1.34.08,2a44.26,44.26,0,0,1-5.59-.45c-1,1.19-10.76-.75-11.26.41l6,0c2.95,1.11-4.16.77-8.4,1,4,1.41,13.14.39,21.72.59-.61-.73,8-1.9-.38-2.32.11-.8,5.11-1,8.4-1-1.52.31,4.63,1.88.79,2.49a24.22,24.22,0,0,1,5.11.06c.22.17.45.36.67.51.87.94,3,.27,4.38.59a4.72,4.72,0,0,0-.65-1c1.36.37,14.27.42,13.38,1.93,2.63-.65-.11-2.5,9.47-2.34-2.32-1.23-13-1.67-5.82-2.74l-4.66.66c-6.67-.74,1.83-1.16-6.87-1.9,2.55.15,7.75-.34,8.9.52-1.76-2,7.44-1.4,11.51-2l4.7-.07a49.21,49.21,0,0,0,6.4.17c-.66.66,2,1.38-1.74,1.75-3.07-.28-5.3-.06-8.68-.71,1.86,2.51,12.37,1.11,20.31,1.78-1.11-.22-1.43-.47.77-.77,4.85.47,15.56,1.13,12.48,2.24l24.47.13c.1.58-3.5.18-5,.35l13.66.28c3.18.83-4.65.72-6,1.45l9.85.1-1.38.74c2.42-.47,13.77-.55,16.51.72,10.81-.22,10.62-2.77,25.23-1.49-.54,1.25-8.27.36-11.66,1.14,2.85.46,11.55-.34,13,.87,10.49-.61,9.34-2.86,14.43-4,8.57,0,.94,1.07,1.28,1.43,2.53.09,6.67-2.16,9-.47,4.14-.87,6.48-1.93.34-2.4,4.55.06,11-.51,12.17-1.05-3.69,1.83,5.2.76,5.71,2.27,6.9.37,22.15.89,28.61-1.09l-1.92,2,8.06-.19c6,1.23-7.1,1.26-11.13,1.36,10.92.24,18.22.15,28.07.1-2.87-.43-1.16-.84-2.54-1.46,3.39-.81,8-.21,11.55-.44.85.48.42.93-2.33,1.07l6.76-.24c-.53,1.24,2.76,1.23-3.92,2.05l6.25-.38c6.89.32-.31,1-2,1.44l10.91.21c3.9-.69-2.23-1.1,5.29-1.45,10.05,1.1,22.88.66,34.31,1l-8.05-1.15c6.89.31,5.51-1.68,7.63-2.54,6.36.19,14.93.07,20.32.56-6.14,1-3.6,2.43,2.12,3.28,12.91.12,9.74-2,16.94-2.76-5.6,2.49,9,.82,7.74,2.16,16.41-.18,32.9-1,49.87-1.18-.33-.35-5.19-.68-2.22-1.08,6.23-.45,9.2.52,10.06,1,8.05-.3,12.69-1.13,15.35-1.89-3.5.28-3.82-.07-3.17-.75,8-.3,5.82,1.38,13.45.15,2,1.3-8.48.75-7.74,2a106.67,106.67,0,0,0,16.74-1.29c1.18.83-4.76.26-.84.91l32.51-2.25,2.23,1.08a64.09,64.09,0,0,0,11.22-.94c2.87.41.63.71-2.11.88,7.09,0,15.78-1,19.81-1.11-.64.68-4,.15-5.2.71,8.89.17,20.11-2.14,26-.77a10.74,10.74,0,0,1-2.42.24c13.18-.06,24.65-1,39-1.26,13.13,1,4.21-1.8,17.13-2,.12,3,17.58-.34,23,0l-1.74-.37c6.34-1.39,15.14-.63,19.6,0,9.63-.16,24-.73,33.65-2.31l-1.9.7c7.93-1.1,12.91-.34,20.86-1.45-.22.23-3.18.72-.1.81,38.33-.6,77.34,6.89,115.52,6.15,36.54-.69,77.56-1.06,118.46-1.37s81.64-.65,117.63-1.59c0,0,5.83-2.07,12.31-4.85L1114,199l-1.13-6.07.46-18a4.54,4.54,0,0,0,1.05-.78l-1,.25.21-3.11,1.27.45c-.92-.92.08-2.2.66-2.68l-1.28-1c.91-1.16,1.31-2,2.58-2.06l-1.25-.21c.31-.11.45-.87.61-1.67,0,.38,0,.71-.07,1.11.39-.75.89-1.47,1.42-2.33l.24-.45.17.17-.14-.24a14.18,14.18,0,0,0,.69-1.46l.09,0a1.36,1.36,0,0,0,0-.2,9.28,9.28,0,0,0,.37-1,10.56,10.56,0,0,0,.32-1.4,3.37,3.37,0,0,0,1,1c.28-2-.18-2.82-.85-3.3a7.94,7.94,0,0,0-.9-3.73c1-1.53-.48-3.94.81-4.66a20.1,20.1,0,0,0-.91-7.24c-.17-.54-.34-1.07-.51-1.62a6.18,6.18,0,0,0,1-2.93l.26,1.27.33-2.93c.66,1.14.43,4.21,1.62,4.4a27.35,27.35,0,0,1-1.36-7.19c0-.1,0-.2,0-.31C1120.62,129.13,1121.66,127,1123.19,126.34ZM11.46,32c-.19.29-.24,5.67-.33,6-.2-.5-.46-6-.72-6.56C10.63,30.78,11.18,31.62,11.46,32ZM10.1,30.08c.46.24.41.89.31,1.32-.26-.54-.51-1.08-.71-1.62A1.89,1.89,0,0,1,10.1,30.08ZM8,41.66a.47.47,0,0,0,0,.09l-.12,0ZM7.89,143.4v-2a4.77,4.77,0,0,1,.64.74,2.91,2.91,0,0,0,.34,1.45C8.39,144.07,8.11,143.78,7.89,143.4ZM25,200.78l.3-.64C26.14,200.48,25.89,200.67,25,200.78Zm.42-.89.11-.29.47.33Zm31.21,9h.06l0,0S56.67,208.89,56.66,208.88Zm44.2-5.36a18.06,18.06,0,0,1-1.86-.6l4.75-.07C103,203,102.24,203.21,100.86,203.52Zm28.3-1a.36.36,0,0,0,.09,0l1.41,0Zm51,2c-3.06-.23-7.32,0-11.12-.12,3.82-1.21-12.18-.41-5.59-1.73-10.85.05-15.66-.32-21.92-.41l11.82-.17-.87.47c2.42-.47,13.77-.55,16.51.72,1.11,0,2.1-.07,3-.13a4.55,4.55,0,0,0,2.46.45c.12-.38,1-.74,2.25-1l1.63-.29a40.18,40.18,0,0,1,6.94-.32C186.76,203.21,171.62,203.17,180.19,204.55ZM267,200.44l6.51-.09.37.08A39.53,39.53,0,0,1,267,200.44ZM1115.29,75.82l-2,1.33a10.89,10.89,0,0,1,0-2.05C1114.09,75,1114.77,73.72,1115.29,75.82Zm.35,5.63a.5.5,0,0,1-.08.12.59.59,0,0,1,.06-.14ZM1113.3,80a17.57,17.57,0,0,0,0-2.85c1.15-.38,1.33.48,1.42,1.51,0,.42,0,.87.12,1.29A4,4,0,0,1,1113.3,80Zm.5-5.23c-.16-.2-.29-.21-.42-.16.06-.38.14-.79.26-1.3l-1.11.93c.47-2.3-1.28-1.38-1.14-3.59.22-.28.71.19,1.13.55a1.75,1.75,0,0,1-.21-1.46c.21.44.44.88.68,1.32a.46.46,0,0,1-.22.34c.19.15.35.2.44.06C1113.76,72.47,1114.25,74.1,1113.8,74.77Zm-14.52-38c-.24-.65-.46-1.32-.72-2C1099.88,35.34,1101.14,36,1099.28,36.72Zm-11.72.4-.1-.81A1.61,1.61,0,0,1,1087.56,37.12Zm-.45-3.59,0-.42a1.22,1.22,0,0,1,.13.3Zm3.48,4.2-.49,0A.91.91,0,0,1,1090.59,37.73Zm-1.95,1a5.08,5.08,0,0,1,1.34-1C1091.56,38,1090.32,38.39,1088.64,38.74Zm8.12,11.36a6,6,0,0,1,.06.66,11.28,11.28,0,0,1-1.68.16C1095.7,50.65,1096.23,50.37,1096.76,50.1Zm1.48,7.21c0,.86.11,1.78.15,2.73a26.51,26.51,0,0,1-.12,3.22h-.06l-.19,0-2.64-4.42C1096.38,58.31,1097.34,57.81,1098.24,57.31Zm20.68,78.42-1.19,0a6.28,6.28,0,0,0,.86-1.55Z"/>
</svg>