<svg xmlns="http://www.w3.org/2000/svg" viewBox="0 0 105.01 121.78">
    <defs>
        <style>
        .cls-1{fill:transparent;stroke:#333;stroke-miterlimit:10;stroke-width:5px;}
        .cls-2{fill:#333;}
        </style>
    </defs>

    <path class="cls-1" d="M2.5,31.89l50-29,50,29v58l-50,29-50-29Z"/>

    <path class="cls-2" d="M69.71,36.34V47.41A48.94,48.94,0,0,0,61.3,44.5a33.5,33.5,0,0,0-7.75-1c-3.22,0-5.6.45-7.14,1.33A4.44,4.44,0,0,0,44.09,49a3.88,3.88,0,0,0,1.56,3.28,15.16,15.16,0,0,0,5.66,2l5.75,1.16q8.73,1.76,12.41,5.33t3.68,10.16q0,8.66-5.14,12.88T52.33,88a53.78,53.78,0,0,1-10-.94,62.59,62.59,0,0,1-10-2.81V72.89a50.35,50.35,0,0,0,9.69,4,32.47,32.47,0,0,0,9,1.35,12.84,12.84,0,0,0,6.77-1.47,5.1,5.1,0,0,0,.75-8c-1.06-.89-3.19-1.68-6.36-2.38L47,65.25q-7.86-1.68-11.48-5.36T31.86,50q0-7.81,5-12t14.51-4.21a63.13,63.13,0,0,1,8.86.65A79.62,79.62,0,0,1,69.71,36.34Z"/>

</svg>