<svg id="visual" viewBox="0 0 960 540" width="960" height="540"
    xmlns="http://www.w3.org/2000/svg"
    xmlns:xlink="http://www.w3.org/1999/xlink" version="1.1">
    <g stroke-width="1" stroke-linejoin="bevel">
        <path d="M472.4 266.4L425.4 198.3L436.4 258.6Z" fill="#1f4f6c" stroke="#1f4f6c"></path>
        <path d="M472.4 266.4L534.6 210.4L425.4 198.3Z" fill="#1f4f6c" stroke="#1f4f6c"></path>
        <path d="M471.4 411.7L526.6 299.6L472.4 266.4Z" fill="#30779a" stroke="#30779a"></path>
        <path d="M472.4 266.4L526.6 299.6L534.6 210.4Z" fill="#235977" stroke="#235977"></path>
        <path d="M585.9 182.3L558.6 165.3L534.6 210.4Z" fill="#1b4561" stroke="#1b4561"></path>
        <path d="M534.6 210.4L558.6 165.3L425.4 198.3Z" fill="#1b4561" stroke="#1b4561"></path>
        <path d="M619.9 272.4L585.9 182.3L534.6 210.4Z" fill="#0d2a40" stroke="#0d2a40"></path>
        <path d="M378.1 121.3L337.1 185.4L425.4 198.3Z" fill="#1f4f6c" stroke="#1f4f6c"></path>
        <path d="M425.4 198.3L350.1 294.6L436.4 258.6Z" fill="#2c6d8f" stroke="#2c6d8f"></path>
        <path d="M481.4 49.1L378.1 121.3L425.4 198.3Z" fill="#1b4561" stroke="#1b4561"></path>
        <path d="M337.1 185.4L350.1 294.6L425.4 198.3Z" fill="#163c55" stroke="#163c55"></path>
        <path d="M436.4 258.6L471.4 411.7L472.4 266.4Z" fill="#3482a6" stroke="#3482a6"></path>
        <path d="M526.6 299.6L619.9 272.4L534.6 210.4Z" fill="#30779a" stroke="#30779a"></path>
        <path d="M565.9 74.1L481.4 49.1L558.6 165.3Z" fill="#0d2a40" stroke="#0d2a40"></path>
        <path d="M558.6 165.3L481.4 49.1L425.4 198.3Z" fill="#082135" stroke="#082135"></path>
        <path d="M664.2 126.3L558.6 165.3L585.9 182.3Z" fill="#082135" stroke="#082135"></path>
        <path d="M664.2 126.3L565.9 74.1L558.6 165.3Z" fill="#286383" stroke="#286383"></path>
        <path d="M481.4 49.1L377.1 58.1L378.1 121.3Z" fill="#0d2a40" stroke="#0d2a40"></path>
        <path d="M239.8 88.1L268.8 213.4L337.1 185.4Z" fill="#163c55" stroke="#163c55"></path>
        <path d="M350.1 294.6L471.4 411.7L436.4 258.6Z" fill="#1b4561" stroke="#1b4561"></path>
        <path d="M526.6 299.6L626.9 331.6L619.9 272.4Z" fill="#2c6d8f" stroke="#2c6d8f"></path>
        <path d="M572.6 403.7L604.9 354.7L526.6 299.6Z" fill="#1b4561" stroke="#1b4561"></path>
        <path d="M213.8 172.3L268.8 213.4L239.8 88.1Z" fill="#082135" stroke="#082135"></path>
        <path d="M337.1 185.4L268.8 213.4L350.1 294.6Z" fill="#30779a" stroke="#30779a"></path>
        <path d="M565.9 74.1L495.6 30.1L481.4 49.1Z" fill="#286383" stroke="#286383"></path>
        <path d="M481.4 49.1L447.4 0L377.1 58.1Z" fill="#3482a6" stroke="#3482a6"></path>
        <path d="M604.9 354.7L626.9 331.6L526.6 299.6Z" fill="#30779a" stroke="#30779a"></path>
        <path d="M268.8 213.4L291.8 331.6L350.1 294.6Z" fill="#163c55" stroke="#163c55"></path>
        <path d="M350.1 294.6L392.1 423.7L471.4 411.7Z" fill="#12334a" stroke="#12334a"></path>
        <path d="M471.4 411.7L572.6 403.7L526.6 299.6Z" fill="#1f4f6c" stroke="#1f4f6c"></path>
        <path d="M681.2 345.7L696.2 308.6L626.9 331.6Z" fill="#286383" stroke="#286383"></path>
        <path d="M291.8 331.6L392.1 423.7L350.1 294.6Z" fill="#3482a6" stroke="#3482a6"></path>
        <path d="M471.4 411.7L569.6 440.9L572.6 403.7Z" fill="#082135" stroke="#082135"></path>
        <path d="M688.2 236.4L585.9 182.3L619.9 272.4Z" fill="#0d2a40" stroke="#0d2a40"></path>
        <path d="M688.2 236.4L664.2 126.3L585.9 182.3Z" fill="#30779a" stroke="#30779a"></path>
        <path d="M565.9 74.1L523.6 0L495.6 30.1Z" fill="#1f4f6c" stroke="#1f4f6c"></path>
        <path d="M523.6 0L447.4 0L495.6 30.1Z" fill="#1f4f6c" stroke="#1f4f6c"></path>
        <path d="M495.6 30.1L447.4 0L481.4 49.1Z" fill="#1f4f6c" stroke="#1f4f6c"></path>
        <path d="M696.2 308.6L688.2 236.4L619.9 272.4Z" fill="#286383" stroke="#286383"></path>
        <path d="M644.9 0L523.6 0L565.9 74.1Z" fill="#286383" stroke="#286383"></path>
        <path d="M451.4 503.9L569.6 440.9L471.4 411.7Z" fill="#163c55" stroke="#163c55"></path>
        <path d="M639.9 433.9L681.2 345.7L604.9 354.7Z" fill="#235977" stroke="#235977"></path>
        <path d="M626.9 331.6L696.2 308.6L619.9 272.4Z" fill="#1b4561" stroke="#1b4561"></path>
        <path d="M681.2 345.7L626.9 331.6L604.9 354.7Z" fill="#286383" stroke="#286383"></path>
        <path d="M639.9 433.9L604.9 354.7L572.6 403.7Z" fill="#1b4561" stroke="#1b4561"></path>
        <path d="M239.8 88.1L337.1 185.4L378.1 121.3Z" fill="#286383" stroke="#286383"></path>
        <path d="M268.8 213.4L225.5 315.6L291.8 331.6Z" fill="#082135" stroke="#082135"></path>
        <path d="M239.8 88.1L378.1 121.3L377.1 58.1Z" fill="#163c55" stroke="#163c55"></path>
        <path d="M204.5 275.4L225.5 315.6L268.8 213.4Z" fill="#12334a" stroke="#12334a"></path>
        <path d="M291.8 331.6L245.8 401.7L392.1 423.7Z" fill="#3482a6" stroke="#3482a6"></path>
        <path d="M307.1 0L239.8 88.1L377.1 58.1Z" fill="#3482a6" stroke="#3482a6"></path>
        <path d="M213.8 172.3L204.5 275.4L268.8 213.4Z" fill="#1b4561" stroke="#1b4561"></path>
        <path d="M447.4 0L307.1 0L377.1 58.1Z" fill="#163c55" stroke="#163c55"></path>
        <path d="M569.6 440.9L639.9 433.9L572.6 403.7Z" fill="#3482a6" stroke="#3482a6"></path>
        <path d="M373.1 540L451.4 503.9L392.1 423.7Z" fill="#286383" stroke="#286383"></path>
        <path d="M392.1 423.7L451.4 503.9L471.4 411.7Z" fill="#30779a" stroke="#30779a"></path>
        <path d="M569.6 440.9L611.9 540L639.9 433.9Z" fill="#082135" stroke="#082135"></path>
        <path d="M206.5 362.7L291.8 331.6L225.5 315.6Z" fill="#082135" stroke="#082135"></path>
        <path d="M206.5 362.7L245.8 401.7L291.8 331.6Z" fill="#2c6d8f" stroke="#2c6d8f"></path>
        <path d="M664.2 126.3L644.9 0L565.9 74.1Z" fill="#286383" stroke="#286383"></path>
        <path d="M708.2 59.1L644.9 0L664.2 126.3Z" fill="#1b4561" stroke="#1b4561"></path>
        <path d="M204.5 275.4L206.5 362.7L225.5 315.6Z" fill="#286383" stroke="#286383"></path>
        <path d="M781.5 121.1L708.2 59.1L664.2 126.3Z" fill="#30779a" stroke="#30779a"></path>
        <path d="M781.5 121.1L664.2 126.3L688.2 236.4Z" fill="#082135" stroke="#082135"></path>
        <path d="M307.1 0L255.8 0L239.8 88.1Z" fill="#3482a6" stroke="#3482a6"></path>
        <path d="M146.5 76.1L141.5 182.3L213.8 172.3Z" fill="#2c6d8f" stroke="#2c6d8f"></path>
        <path d="M278.8 504.9L332.1 499.9L245.8 401.7Z" fill="#286383" stroke="#286383"></path>
        <path d="M245.8 401.7L332.1 499.9L392.1 423.7Z" fill="#12334a" stroke="#12334a"></path>
        <path d="M431.4 540L486.6 540L451.4 503.9Z" fill="#3482a6" stroke="#3482a6"></path>
        <path d="M451.4 503.9L486.6 540L569.6 440.9Z" fill="#163c55" stroke="#163c55"></path>
        <path d="M373.1 540L431.4 540L451.4 503.9Z" fill="#163c55" stroke="#163c55"></path>
        <path d="M146.5 76.1L213.8 172.3L239.8 88.1Z" fill="#235977" stroke="#235977"></path>
        <path d="M213.8 172.3L141.5 182.3L204.5 275.4Z" fill="#30779a" stroke="#30779a"></path>
        <path d="M204.5 275.4L106.3 334.7L206.5 362.7Z" fill="#163c55" stroke="#163c55"></path>
        <path d="M332.1 499.9L373.1 540L392.1 423.7Z" fill="#082135" stroke="#082135"></path>
        <path d="M708.2 59.1L709.2 0L644.9 0Z" fill="#163c55" stroke="#163c55"></path>
        <path d="M820.7 294.6L688.2 236.4L696.2 308.6Z" fill="#12334a" stroke="#12334a"></path>
        <path d="M812.5 149.3L781.5 121.1L688.2 236.4Z" fill="#12334a" stroke="#12334a"></path>
        <path d="M708.2 59.1L822.7 27.1L709.2 0Z" fill="#3482a6" stroke="#3482a6"></path>
        <path d="M246.8 540L278.8 504.9L205.5 540Z" fill="#12334a" stroke="#12334a"></path>
        <path d="M332.1 499.9L278.8 504.9L373.1 540Z" fill="#1f4f6c" stroke="#1f4f6c"></path>
        <path d="M639.9 433.9L754.5 398.7L681.2 345.7Z" fill="#1b4561" stroke="#1b4561"></path>
        <path d="M681.2 345.7L754.5 398.7L696.2 308.6Z" fill="#30779a" stroke="#30779a"></path>
        <path d="M759.5 431.9L754.5 398.7L639.9 433.9Z" fill="#082135" stroke="#082135"></path>
        <path d="M754.5 398.7L789.5 330.6L696.2 308.6Z" fill="#082135" stroke="#082135"></path>
        <path d="M255.8 0L146.5 76.1L239.8 88.1Z" fill="#2c6d8f" stroke="#2c6d8f"></path>
        <path d="M486.6 540L611.9 540L569.6 440.9Z" fill="#2c6d8f" stroke="#2c6d8f"></path>
        <path d="M831.5 243.4L812.5 149.3L688.2 236.4Z" fill="#082135" stroke="#082135"></path>
        <path d="M781.5 121.1L822.7 27.1L708.2 59.1Z" fill="#1b4561" stroke="#1b4561"></path>
        <path d="M690.2 511.9L759.5 431.9L639.9 433.9Z" fill="#163c55" stroke="#163c55"></path>
        <path d="M754.5 398.7L839.7 393.7L789.5 330.6Z" fill="#082135" stroke="#082135"></path>
        <path d="M839.7 393.7L820.7 294.6L789.5 330.6Z" fill="#3482a6" stroke="#3482a6"></path>
        <path d="M789.5 330.6L820.7 294.6L696.2 308.6Z" fill="#30779a" stroke="#30779a"></path>
        <path d="M611.9 540L690.2 511.9L639.9 433.9Z" fill="#30779a" stroke="#30779a"></path>
        <path d="M820.7 294.6L831.5 243.4L688.2 236.4Z" fill="#163c55" stroke="#163c55"></path>
        <path d="M88.3 267.6L106.3 334.7L204.5 275.4Z" fill="#3482a6" stroke="#3482a6"></path>
        <path d="M144.5 471.9L278.8 504.9L245.8 401.7Z" fill="#3482a6" stroke="#3482a6"></path>
        <path d="M88.3 267.6L204.5 275.4L141.5 182.3Z" fill="#1b4561" stroke="#1b4561"></path>
        <path d="M84.3 260.4L88.3 267.6L141.5 182.3Z" fill="#1f4f6c" stroke="#1f4f6c"></path>
        <path d="M42.3 132.3L84.3 260.4L141.5 182.3Z" fill="#286383" stroke="#286383"></path>
        <path d="M88.3 267.6L0 320.6L106.3 334.7Z" fill="#2c6d8f" stroke="#2c6d8f"></path>
        <path d="M144.5 471.9L245.8 401.7L206.5 362.7Z" fill="#286383" stroke="#286383"></path>
        <path d="M278.8 504.9L246.8 540L373.1 540Z" fill="#1b4561" stroke="#1b4561"></path>
        <path d="M124.5 0L121.3 40.1L146.5 76.1Z" fill="#12334a" stroke="#12334a"></path>
        <path d="M146.5 76.1L42.3 132.3L141.5 182.3Z" fill="#163c55" stroke="#163c55"></path>
        <path d="M839.7 393.7L850.7 271.4L820.7 294.6Z" fill="#1b4561" stroke="#1b4561"></path>
        <path d="M820.7 294.6L850.7 271.4L831.5 243.4Z" fill="#2c6d8f" stroke="#2c6d8f"></path>
        <path d="M831.5 243.4L851.7 123.3L812.5 149.3Z" fill="#163c55" stroke="#163c55"></path>
        <path d="M960 212.4L851.7 123.3L831.5 243.4Z" fill="#2c6d8f" stroke="#2c6d8f"></path>
        <path d="M812.5 149.3L851.7 123.3L781.5 121.1Z" fill="#1f4f6c" stroke="#1f4f6c"></path>
        <path d="M690.2 511.9L710.2 540L759.5 431.9Z" fill="#163c55" stroke="#163c55"></path>
        <path d="M759.5 431.9L839.7 393.7L754.5 398.7Z" fill="#235977" stroke="#235977"></path>
        <path d="M611.9 540L710.2 540L690.2 511.9Z" fill="#30779a" stroke="#30779a"></path>
        <path d="M85.3 443.9L144.5 471.9L206.5 362.7Z" fill="#1b4561" stroke="#1b4561"></path>
        <path d="M85.3 443.9L206.5 362.7L106.3 334.7Z" fill="#30779a" stroke="#30779a"></path>
        <path d="M255.8 0L124.5 0L146.5 76.1Z" fill="#12334a" stroke="#12334a"></path>
        <path d="M121.3 40.1L42.3 132.3L146.5 76.1Z" fill="#12334a" stroke="#12334a"></path>
        <path d="M144.5 471.9L205.5 540L278.8 504.9Z" fill="#163c55" stroke="#163c55"></path>
        <path d="M851.7 123.3L822.7 27.1L781.5 121.1Z" fill="#3482a6" stroke="#3482a6"></path>
        <path d="M840.7 487.9L839.7 393.7L759.5 431.9Z" fill="#286383" stroke="#286383"></path>
        <path d="M881.7 0L829.5 0L822.7 27.1Z" fill="#235977" stroke="#235977"></path>
        <path d="M822.7 27.1L829.5 0L709.2 0Z" fill="#163c55" stroke="#163c55"></path>
        <path d="M0 79.1L42.3 132.3L121.3 40.1Z" fill="#30779a" stroke="#30779a"></path>
        <path d="M0 377.7L85.3 443.9L106.3 334.7Z" fill="#30779a" stroke="#30779a"></path>
        <path d="M0 320.6L88.3 267.6L84.3 260.4Z" fill="#3482a6" stroke="#3482a6"></path>
        <path d="M144.5 471.9L125.3 540L205.5 540Z" fill="#2c6d8f" stroke="#2c6d8f"></path>
        <path d="M124.5 0L78.3 0L121.3 40.1Z" fill="#2c6d8f" stroke="#2c6d8f"></path>
        <path d="M800.5 540L840.7 487.9L759.5 431.9Z" fill="#2c6d8f" stroke="#2c6d8f"></path>
        <path d="M960 278.6L960 212.4L850.7 271.4Z" fill="#1f4f6c" stroke="#1f4f6c"></path>
        <path d="M0 109.3L0 221.4L42.3 132.3Z" fill="#286383" stroke="#286383"></path>
        <path d="M42.3 132.3L0 221.4L84.3 260.4Z" fill="#3482a6" stroke="#3482a6"></path>
        <path d="M710.2 540L800.5 540L759.5 431.9Z" fill="#30779a" stroke="#30779a"></path>
        <path d="M85.3 443.9L125.3 540L144.5 471.9Z" fill="#2c6d8f" stroke="#2c6d8f"></path>
        <path d="M0 221.4L0 320.6L84.3 260.4Z" fill="#1f4f6c" stroke="#1f4f6c"></path>
        <path d="M85.3 443.9L0 540L125.3 540Z" fill="#235977" stroke="#235977"></path>
        <path d="M960 56.1L881.7 0L851.7 123.3Z" fill="#082135" stroke="#082135"></path>
        <path d="M851.7 123.3L881.7 0L822.7 27.1Z" fill="#2c6d8f" stroke="#2c6d8f"></path>
        <path d="M960 212.4L831.5 243.4L850.7 271.4Z" fill="#286383" stroke="#286383"></path>
        <path d="M0 79.1L0 109.3L42.3 132.3Z" fill="#082135" stroke="#082135"></path>
        <path d="M78.3 0L0 79.1L121.3 40.1Z" fill="#12334a" stroke="#12334a"></path>
        <path d="M0 320.6L0 377.7L106.3 334.7Z" fill="#0d2a40" stroke="#0d2a40"></path>
        <path d="M960 278.6L850.7 271.4L839.7 393.7Z" fill="#12334a" stroke="#12334a"></path>
        <path d="M960 406.7L960 278.6L839.7 393.7Z" fill="#30779a" stroke="#30779a"></path>
        <path d="M960 212.4L960 143.3L851.7 123.3Z" fill="#082135" stroke="#082135"></path>
        <path d="M0 377.7L0 425.9L85.3 443.9Z" fill="#12334a" stroke="#12334a"></path>
        <path d="M78.3 0L0 0L0 79.1Z" fill="#082135" stroke="#082135"></path>
        <path d="M960 143.3L960 56.1L851.7 123.3Z" fill="#0d2a40" stroke="#0d2a40"></path>
        <path d="M800.5 540L880.7 540L840.7 487.9Z" fill="#0d2a40" stroke="#0d2a40"></path>
        <path d="M960 456.9L960 406.7L839.7 393.7Z" fill="#082135" stroke="#082135"></path>
        <path d="M960 456.9L839.7 393.7L840.7 487.9Z" fill="#1f4f6c" stroke="#1f4f6c"></path>
        <path d="M960 56.1L960 0L881.7 0Z" fill="#12334a" stroke="#12334a"></path>
        <path d="M880.7 540L960 456.9L840.7 487.9Z" fill="#12334a" stroke="#12334a"></path>
        <path d="M0 425.9L0 540L85.3 443.9Z" fill="#1f4f6c" stroke="#1f4f6c"></path>
        <path d="M880.7 540L960 540L960 456.9Z" fill="#235977" stroke="#235977"></path>
    </g>
</svg>