<?xml version="1.0" encoding="UTF-8"?>
<svg width="700pt" height="700pt" version="1.1" viewBox="0 0 700 700"
    xmlns="http://www.w3.org/2000/svg"
    xmlns:xlink="http://www.w3.org/1999/xlink">
    <g>
        <path d="m339.36 366.8h21.84c50.961 0 92.961-41.441 92.961-92.961v-141.68c-0.55859-51.52-42-92.961-93.52-92.961h-21.84c-50.961 0-92.961 41.441-92.961 92.961v142.24c0.55859 50.961 42 92.402 93.52 92.402zm-59.359-234.64c0-32.48 26.32-59.359 59.359-59.359h21.84c32.48 0 59.359 26.32 59.359 59.359v142.24c0 32.48-26.32 59.359-59.359 59.359h-21.84c-32.48 0-59.359-26.32-59.359-59.359z"/>
        <path d="m350 196.56c9.5195 0 16.801-7.2812 16.801-16.801v-60.477c0-9.5195-7.2812-16.801-16.801-16.801s-16.801 7.2812-16.801 16.801v59.922c0 9.5156 7.2812 17.355 16.801 17.355z"/>
        <path d="m414.4 395.36-8.3984-7.8398-56 56-56-56-8.3984 7.8398 64.398 64.402z"/>
        <path d="m350 511.84 64.398-63.84-8.3984-8.3984-56 56.559-56-56.559-8.3984 8.3984z"/>
    </g>
</svg>
