<svg id="scroll"
    xmlns="http://www.w3.org/2000/svg" viewBox="0 0 208.32 617.68">
    <g id="mouse">
        <path d="M93.52,472.64h21.84a93.09,93.09,0,0,0,93-93V238a93.57,93.57,0,0,0-93.52-93H93A93.09,93.09,0,0,0,0,238V380.24a93.46,93.46,0,0,0,93.52,92.4ZM34.16,238a59.39,59.39,0,0,1,59.36-59.36h21.84A59.39,59.39,0,0,1,174.72,238V380.24a59.39,59.39,0,0,1-59.36,59.36H93.52a59.39,59.39,0,0,1-59.36-59.36Z"/>
        <path d="M104.16,302.4A16.5,16.5,0,0,0,121,285.6V225.12a16.8,16.8,0,0,0-33.6,0V285c0,9.52,7.28,17.36,16.8,17.36Z"/>
    </g>
    <g id="down">
        <path d="M168.56,501.2l-8.4-7.84-56,56-56-56-8.4,7.84,64.4,64.4Z"/>
        <path d="M104.16,617.68l64.4-63.84-8.4-8.4-56,56.56-56-56.56-8.4,8.4Z"/>
    </g>
    <g id="up">
        <path d="M39.76,116.48l8.4,7.84,56-56,56,56,8.4-7.84-64.4-64.4Z"/>
        <path d="M104.16,0,39.76,63.84l8.4,8.4,56-56.56,56,56.56,8.4-8.4Z"/>
    </g>
</svg>